<mxfile host="www.draw.io" modified="2019-10-23T03:16:23.895Z" agent="Mozilla/5.0 (Windows NT 6.1; Win64; x64) AppleWebKit/537.36 (KHTML, like Gecko) Chrome/77.0.3865.75 Safari/537.36" etag="cQe6GsC-uYiGme_hkXn6" version="12.1.3" type="github" pages="3">
  <diagram id="6nCWe3AIVtNbBuBxner2" name="Page-1">
    <mxGraphModel dx="782" dy="697" grid="1" gridSize="10" guides="1" tooltips="1" connect="1" arrows="1" fold="1" page="1" pageScale="1" pageWidth="827" pageHeight="1169" math="0" shadow="0">
      <root>
        <mxCell id="0"/>
        <mxCell id="1" parent="0"/>
        <mxCell id="iUQutEtc0r-RjC1v5hM1-81" value="" style="rounded=1;whiteSpace=wrap;html=1;fillColor=none;strokeColor=#999999;fontColor=#ffffff;" parent="1" vertex="1">
          <mxGeometry x="80" y="728" width="710" height="182" as="geometry"/>
        </mxCell>
        <mxCell id="iUQutEtc0r-RjC1v5hM1-68" value="" style="rounded=1;whiteSpace=wrap;html=1;fillColor=none;strokeColor=#999999;fontColor=#ffffff;" parent="1" vertex="1">
          <mxGeometry x="80" y="160" width="710" height="170" as="geometry"/>
        </mxCell>
        <mxCell id="iUQutEtc0r-RjC1v5hM1-54" value="" style="rounded=1;whiteSpace=wrap;html=1;fillColor=none;strokeColor=#999999;fontColor=#ffffff;" parent="1" vertex="1">
          <mxGeometry x="300" y="346" width="490" height="141" as="geometry"/>
        </mxCell>
        <mxCell id="iUQutEtc0r-RjC1v5hM1-55" value="" style="rounded=1;whiteSpace=wrap;html=1;fillColor=none;strokeColor=#999999;fontColor=#ffffff;" parent="1" vertex="1">
          <mxGeometry x="300" y="498" width="490" height="210" as="geometry"/>
        </mxCell>
        <mxCell id="iUQutEtc0r-RjC1v5hM1-1" value="&lt;font style=&quot;font-size: 13px&quot;&gt;Login Portal&lt;/font&gt;" style="rounded=0;whiteSpace=wrap;html=1;" parent="1" vertex="1">
          <mxGeometry x="120" y="80" width="120" height="60" as="geometry"/>
        </mxCell>
        <mxCell id="iUQutEtc0r-RjC1v5hM1-2" value="&lt;font style=&quot;font-size: 13px&quot;&gt;Client Browser&lt;/font&gt;" style="rounded=0;whiteSpace=wrap;html=1;" parent="1" vertex="1">
          <mxGeometry x="342" y="80" width="120" height="60" as="geometry"/>
        </mxCell>
        <mxCell id="iUQutEtc0r-RjC1v5hM1-3" value="&lt;font style=&quot;font-size: 13px&quot;&gt;Singpass Mobile&lt;/font&gt;" style="rounded=0;whiteSpace=wrap;html=1;" parent="1" vertex="1">
          <mxGeometry x="522" y="80" width="120" height="60" as="geometry"/>
        </mxCell>
        <mxCell id="iUQutEtc0r-RjC1v5hM1-4" value="&lt;font style=&quot;font-size: 13px&quot;&gt;Singpass Backend&lt;/font&gt;" style="rounded=0;whiteSpace=wrap;html=1;" parent="1" vertex="1">
          <mxGeometry x="702" y="80" width="120" height="60" as="geometry"/>
        </mxCell>
        <mxCell id="iUQutEtc0r-RjC1v5hM1-5" value="" style="endArrow=none;html=1;entryX=0.5;entryY=1;entryDx=0;entryDy=0;" parent="1" target="iUQutEtc0r-RjC1v5hM1-1" edge="1">
          <mxGeometry width="50" height="50" relative="1" as="geometry">
            <mxPoint x="180" y="920" as="sourcePoint"/>
            <mxPoint x="170" y="160" as="targetPoint"/>
          </mxGeometry>
        </mxCell>
        <mxCell id="iUQutEtc0r-RjC1v5hM1-6" value="" style="endArrow=none;html=1;entryX=0.5;entryY=1;entryDx=0;entryDy=0;" parent="1" edge="1">
          <mxGeometry width="50" height="50" relative="1" as="geometry">
            <mxPoint x="402" y="920" as="sourcePoint"/>
            <mxPoint x="401.5" y="140" as="targetPoint"/>
          </mxGeometry>
        </mxCell>
        <mxCell id="iUQutEtc0r-RjC1v5hM1-8" value="" style="endArrow=none;html=1;entryX=0.5;entryY=1;entryDx=0;entryDy=0;" parent="1" edge="1">
          <mxGeometry width="50" height="50" relative="1" as="geometry">
            <mxPoint x="582" y="920" as="sourcePoint"/>
            <mxPoint x="582" y="140" as="targetPoint"/>
          </mxGeometry>
        </mxCell>
        <mxCell id="iUQutEtc0r-RjC1v5hM1-9" value="" style="endArrow=none;html=1;entryX=0.5;entryY=1;entryDx=0;entryDy=0;" parent="1" edge="1">
          <mxGeometry width="50" height="50" relative="1" as="geometry">
            <mxPoint x="762" y="920" as="sourcePoint"/>
            <mxPoint x="762" y="140" as="targetPoint"/>
          </mxGeometry>
        </mxCell>
        <mxCell id="iUQutEtc0r-RjC1v5hM1-13" value="" style="endArrow=classic;html=1;dashed=1;fillColor=#60a917;strokeColor=#2D7600;" parent="1" edge="1">
          <mxGeometry width="50" height="50" relative="1" as="geometry">
            <mxPoint x="400" y="200" as="sourcePoint"/>
            <mxPoint x="180" y="200" as="targetPoint"/>
          </mxGeometry>
        </mxCell>
        <mxCell id="iUQutEtc0r-RjC1v5hM1-14" value="" style="endArrow=classic;html=1;fillColor=#0050ef;strokeColor=#001DBC;dashed=1;" parent="1" edge="1">
          <mxGeometry width="50" height="50" relative="1" as="geometry">
            <mxPoint x="402" y="278.5" as="sourcePoint"/>
            <mxPoint x="762" y="278.5" as="targetPoint"/>
          </mxGeometry>
        </mxCell>
        <mxCell id="iUQutEtc0r-RjC1v5hM1-15" value="" style="endArrow=classic;html=1;fillColor=#0050ef;strokeColor=#001DBC;dashed=1;" parent="1" edge="1">
          <mxGeometry width="50" height="50" relative="1" as="geometry">
            <mxPoint x="401.9999999999999" y="372" as="sourcePoint"/>
            <mxPoint x="762" y="372" as="targetPoint"/>
          </mxGeometry>
        </mxCell>
        <mxCell id="iUQutEtc0r-RjC1v5hM1-16" value="&lt;font style=&quot;font-size: 11px&quot;&gt;Client click on Login with Signpass button,&lt;br&gt;1a. Trigger login URL&lt;br&gt;&lt;/font&gt;" style="text;html=1;strokeColor=none;fillColor=none;align=center;verticalAlign=middle;whiteSpace=wrap;rounded=0;" parent="1" vertex="1">
          <mxGeometry x="185" y="170" width="220" height="28" as="geometry"/>
        </mxCell>
        <mxCell id="iUQutEtc0r-RjC1v5hM1-18" value="" style="endArrow=classic;html=1;fillColor=#60a917;strokeColor=#2D7600;dashed=1;" parent="1" edge="1">
          <mxGeometry width="50" height="50" relative="1" as="geometry">
            <mxPoint x="180" y="278" as="sourcePoint"/>
            <mxPoint x="400" y="278" as="targetPoint"/>
          </mxGeometry>
        </mxCell>
        <mxCell id="iUQutEtc0r-RjC1v5hM1-19" value="&lt;font style=&quot;font-size: 11px&quot;&gt;1c. Initiate Singapass QR code Javascript package with OIDC initialization parameters&lt;/font&gt;" style="text;html=1;strokeColor=none;fillColor=none;align=center;verticalAlign=middle;whiteSpace=wrap;rounded=0;" parent="1" vertex="1">
          <mxGeometry x="185" y="248" width="220" height="27" as="geometry"/>
        </mxCell>
        <mxCell id="iUQutEtc0r-RjC1v5hM1-20" value="&lt;font style=&quot;font-size: 11px&quot;&gt;1d. Initialize OIDC with OIDC initialization parameters&lt;/font&gt;" style="text;html=1;strokeColor=none;fillColor=none;align=center;verticalAlign=middle;whiteSpace=wrap;rounded=0;" parent="1" vertex="1">
          <mxGeometry x="471" y="253" width="279" height="18" as="geometry"/>
        </mxCell>
        <mxCell id="iUQutEtc0r-RjC1v5hM1-22" value="" style="endArrow=classic;html=1;fillColor=#e51400;strokeColor=#B20000;dashed=1;" parent="1" edge="1">
          <mxGeometry width="50" height="50" relative="1" as="geometry">
            <mxPoint x="762" y="306.5" as="sourcePoint"/>
            <mxPoint x="402" y="306.5" as="targetPoint"/>
          </mxGeometry>
        </mxCell>
        <mxCell id="iUQutEtc0r-RjC1v5hM1-23" value="&lt;font style=&quot;font-size: 11px&quot;&gt;1e. Present QR Code&lt;/font&gt;" style="text;html=1;strokeColor=none;fillColor=none;align=center;verticalAlign=middle;whiteSpace=wrap;rounded=0;" parent="1" vertex="1">
          <mxGeometry x="472.5" y="290" width="120" height="18" as="geometry"/>
        </mxCell>
        <mxCell id="iUQutEtc0r-RjC1v5hM1-42" value="&lt;font style=&quot;font-size: 11px&quot;&gt;2a. Start QR scan listener with statetoken (AJAX)&lt;/font&gt;" style="text;html=1;strokeColor=none;fillColor=none;align=left;verticalAlign=middle;whiteSpace=wrap;rounded=0;" parent="1" vertex="1">
          <mxGeometry x="410" y="352" width="250" height="18" as="geometry"/>
        </mxCell>
        <mxCell id="iUQutEtc0r-RjC1v5hM1-25" value="&lt;font style=&quot;font-size: 11px&quot;&gt;3. Scan QR Code&lt;/font&gt;" style="text;html=1;strokeColor=none;fillColor=none;align=center;verticalAlign=middle;whiteSpace=wrap;rounded=0;" parent="1" vertex="1">
          <mxGeometry x="415" y="385" width="150" height="18" as="geometry"/>
        </mxCell>
        <mxCell id="iUQutEtc0r-RjC1v5hM1-26" value="" style="endArrow=classic;html=1;" parent="1" edge="1">
          <mxGeometry width="50" height="50" relative="1" as="geometry">
            <mxPoint x="582" y="405" as="sourcePoint"/>
            <mxPoint x="761.9999999999999" y="405" as="targetPoint"/>
          </mxGeometry>
        </mxCell>
        <mxCell id="iUQutEtc0r-RjC1v5hM1-27" value="&lt;font style=&quot;font-size: 11px&quot;&gt;4a. Send scanned QR Code&lt;/font&gt;" style="text;html=1;strokeColor=none;fillColor=none;align=center;verticalAlign=middle;whiteSpace=wrap;rounded=0;" parent="1" vertex="1">
          <mxGeometry x="600" y="388" width="150" height="18" as="geometry"/>
        </mxCell>
        <mxCell id="iUQutEtc0r-RjC1v5hM1-31" value="" style="endArrow=classic;html=1;" parent="1" edge="1">
          <mxGeometry width="50" height="50" relative="1" as="geometry">
            <mxPoint x="762" y="556.0000000000001" as="sourcePoint"/>
            <mxPoint x="582" y="556.0000000000001" as="targetPoint"/>
          </mxGeometry>
        </mxCell>
        <mxCell id="iUQutEtc0r-RjC1v5hM1-32" value="&lt;font style=&quot;font-size: 11px&quot;&gt;4b. Prompt for 2FA and consent&lt;/font&gt;" style="text;html=1;strokeColor=none;fillColor=none;align=left;verticalAlign=middle;whiteSpace=wrap;rounded=0;" parent="1" vertex="1">
          <mxGeometry x="592" y="536" width="160" height="18" as="geometry"/>
        </mxCell>
        <mxCell id="iUQutEtc0r-RjC1v5hM1-33" value="" style="endArrow=classic;html=1;fillColor=#60a917;strokeColor=#2D7600;dashed=1;" parent="1" edge="1">
          <mxGeometry width="50" height="50" relative="1" as="geometry">
            <mxPoint x="179.83333333333337" y="220" as="sourcePoint"/>
            <mxPoint x="180" y="240" as="targetPoint"/>
            <Array as="points">
              <mxPoint x="209.83333333333337" y="220"/>
              <mxPoint x="220" y="230"/>
              <mxPoint x="210" y="240"/>
            </Array>
          </mxGeometry>
        </mxCell>
        <mxCell id="iUQutEtc0r-RjC1v5hM1-34" value="&lt;font style=&quot;font-size: 11px&quot;&gt;6b. Notify successful authentication&lt;/font&gt;" style="text;html=1;strokeColor=none;fillColor=none;align=left;verticalAlign=middle;whiteSpace=wrap;rounded=0;" parent="1" vertex="1">
          <mxGeometry x="588" y="637" width="176" height="18" as="geometry"/>
        </mxCell>
        <mxCell id="iUQutEtc0r-RjC1v5hM1-35" value="" style="endArrow=classic;html=1;fillColor=#0050ef;strokeColor=#001DBC;" parent="1" edge="1">
          <mxGeometry width="50" height="50" relative="1" as="geometry">
            <mxPoint x="402" y="758" as="sourcePoint"/>
            <mxPoint x="762" y="758.0000000000001" as="targetPoint"/>
          </mxGeometry>
        </mxCell>
        <mxCell id="iUQutEtc0r-RjC1v5hM1-36" value="&lt;font style=&quot;font-size: 11px&quot;&gt;2f. Request for authorization code from OIDC Authorization Endpoint&lt;/font&gt;" style="text;html=1;strokeColor=none;fillColor=none;align=left;verticalAlign=middle;whiteSpace=wrap;rounded=0;" parent="1" vertex="1">
          <mxGeometry x="415" y="738" width="345" height="18" as="geometry"/>
        </mxCell>
        <mxCell id="iUQutEtc0r-RjC1v5hM1-37" value="&lt;font style=&quot;font-size: 11px&quot;&gt;2g. Redirect to redirect_uri with Authorization Code&amp;nbsp;&lt;/font&gt;" style="text;html=1;strokeColor=none;fillColor=none;align=left;verticalAlign=middle;whiteSpace=wrap;rounded=0;" parent="1" vertex="1">
          <mxGeometry x="415" y="768" width="315" height="18" as="geometry"/>
        </mxCell>
        <mxCell id="iUQutEtc0r-RjC1v5hM1-38" value="" style="endArrow=classic;html=1;" parent="1" edge="1">
          <mxGeometry width="50" height="50" relative="1" as="geometry">
            <mxPoint x="761" y="788" as="sourcePoint"/>
            <mxPoint x="400.9999999999999" y="788" as="targetPoint"/>
          </mxGeometry>
        </mxCell>
        <mxCell id="iUQutEtc0r-RjC1v5hM1-40" value="&lt;font style=&quot;font-size: 11px&quot;&gt;1b. Generate OIDC initialization parameters&lt;/font&gt;" style="text;html=1;strokeColor=none;fillColor=none;align=center;verticalAlign=middle;whiteSpace=wrap;rounded=0;" parent="1" vertex="1">
          <mxGeometry x="220" y="220" width="230" height="20" as="geometry"/>
        </mxCell>
        <mxCell id="iUQutEtc0r-RjC1v5hM1-41" value="&lt;font style=&quot;font-size: 12px&quot;&gt;&lt;b&gt;Notes:&lt;/b&gt;&lt;br&gt;1. Lines highlighted in green are to be implemented by eService (iTrade Login Portal)&lt;br&gt;2. Lines highlighted in blue are to be implemented by Singpass QR Code Javascript Package&lt;br&gt;3. Lines highlighted in red are to be implemented by Singpass backed components&lt;br&gt;4. Dashed lines denote asynchronous calls, solid lines denote synchronous calls&lt;br&gt;5. Lines in black are existing Singpass Backends Flows&lt;br&gt;&lt;/font&gt;" style="text;html=1;strokeColor=none;fillColor=none;align=left;verticalAlign=middle;whiteSpace=wrap;rounded=0;" parent="1" vertex="1">
          <mxGeometry x="77" y="910" width="530" height="100" as="geometry"/>
        </mxCell>
        <mxCell id="iUQutEtc0r-RjC1v5hM1-44" value="" style="endArrow=classic;html=1;" parent="1" edge="1">
          <mxGeometry width="50" height="50" relative="1" as="geometry">
            <mxPoint x="402" y="404.5" as="sourcePoint"/>
            <mxPoint x="582" y="404.5" as="targetPoint"/>
          </mxGeometry>
        </mxCell>
        <mxCell id="iUQutEtc0r-RjC1v5hM1-45" value="" style="endArrow=classic;html=1;fillColor=#0050ef;strokeColor=#001DBC;" parent="1" edge="1">
          <mxGeometry width="50" height="50" relative="1" as="geometry">
            <mxPoint x="401.83333333333337" y="453" as="sourcePoint"/>
            <mxPoint x="402" y="473" as="targetPoint"/>
            <Array as="points">
              <mxPoint x="431.83333333333337" y="453"/>
              <mxPoint x="442" y="463"/>
              <mxPoint x="432" y="473"/>
            </Array>
          </mxGeometry>
        </mxCell>
        <mxCell id="iUQutEtc0r-RjC1v5hM1-49" value="" style="endArrow=classic;html=1;fillColor=#e51400;strokeColor=#B20000;dashed=1;" parent="1" edge="1">
          <mxGeometry width="50" height="50" relative="1" as="geometry">
            <mxPoint x="762" y="434.0000000000001" as="sourcePoint"/>
            <mxPoint x="402" y="434.0000000000001" as="targetPoint"/>
          </mxGeometry>
        </mxCell>
        <mxCell id="iUQutEtc0r-RjC1v5hM1-50" value="&lt;font style=&quot;font-size: 11px&quot;&gt;2b. QR scanned (AJAX)&lt;/font&gt;" style="text;html=1;strokeColor=none;fillColor=none;align=center;verticalAlign=middle;whiteSpace=wrap;rounded=0;" parent="1" vertex="1">
          <mxGeometry x="441" y="414" width="140" height="18" as="geometry"/>
        </mxCell>
        <mxCell id="iUQutEtc0r-RjC1v5hM1-51" value="" style="endArrow=classic;html=1;fillColor=#60a917;strokeColor=#000000;" parent="1" edge="1">
          <mxGeometry width="50" height="50" relative="1" as="geometry">
            <mxPoint x="580.8333333333335" y="578.5" as="sourcePoint"/>
            <mxPoint x="581" y="598.5" as="targetPoint"/>
            <Array as="points">
              <mxPoint x="610.8333333333334" y="578.5"/>
              <mxPoint x="621" y="588.5"/>
              <mxPoint x="611" y="598.5"/>
            </Array>
          </mxGeometry>
        </mxCell>
        <mxCell id="iUQutEtc0r-RjC1v5hM1-52" value="&lt;font style=&quot;font-size: 11px&quot;&gt;2c. Update QR code image&lt;/font&gt;" style="text;html=1;strokeColor=none;fillColor=none;align=left;verticalAlign=middle;whiteSpace=wrap;rounded=0;" parent="1" vertex="1">
          <mxGeometry x="441" y="449" width="139" height="18" as="geometry"/>
        </mxCell>
        <mxCell id="iUQutEtc0r-RjC1v5hM1-56" value="&lt;font style=&quot;font-size: 11px&quot;&gt;2d. Start QR Authentication listener (AJAX)&lt;/font&gt;" style="text;html=1;strokeColor=none;fillColor=none;align=left;verticalAlign=middle;whiteSpace=wrap;rounded=0;" parent="1" vertex="1">
          <mxGeometry x="433" y="508" width="240" height="18" as="geometry"/>
        </mxCell>
        <mxCell id="iUQutEtc0r-RjC1v5hM1-57" value="" style="endArrow=classic;html=1;fillColor=#0050ef;strokeColor=#001DBC;dashed=1;" parent="1" edge="1">
          <mxGeometry width="50" height="50" relative="1" as="geometry">
            <mxPoint x="402" y="528.0000000000001" as="sourcePoint"/>
            <mxPoint x="762" y="528.0000000000001" as="targetPoint"/>
          </mxGeometry>
        </mxCell>
        <mxCell id="iUQutEtc0r-RjC1v5hM1-58" value="&lt;font style=&quot;font-size: 11px&quot;&gt;5. User provides 2FA and consent&lt;/font&gt;" style="text;html=1;strokeColor=none;fillColor=none;align=left;verticalAlign=middle;whiteSpace=wrap;rounded=0;" parent="1" vertex="1">
          <mxGeometry x="620" y="570" width="148" height="22" as="geometry"/>
        </mxCell>
        <mxCell id="iUQutEtc0r-RjC1v5hM1-61" value="" style="endArrow=classic;html=1;" parent="1" edge="1">
          <mxGeometry width="50" height="50" relative="1" as="geometry">
            <mxPoint x="582" y="626" as="sourcePoint"/>
            <mxPoint x="762" y="626" as="targetPoint"/>
          </mxGeometry>
        </mxCell>
        <mxCell id="iUQutEtc0r-RjC1v5hM1-62" value="&lt;font style=&quot;font-size: 11px&quot;&gt;6a. Send signature&lt;/font&gt;" style="text;html=1;strokeColor=none;fillColor=none;align=left;verticalAlign=middle;whiteSpace=wrap;rounded=0;" parent="1" vertex="1">
          <mxGeometry x="612" y="608" width="130" height="18" as="geometry"/>
        </mxCell>
        <mxCell id="iUQutEtc0r-RjC1v5hM1-63" value="" style="endArrow=classic;html=1;" parent="1" edge="1">
          <mxGeometry width="50" height="50" relative="1" as="geometry">
            <mxPoint x="762" y="655.5" as="sourcePoint"/>
            <mxPoint x="582" y="655.5" as="targetPoint"/>
          </mxGeometry>
        </mxCell>
        <mxCell id="iUQutEtc0r-RjC1v5hM1-64" value="" style="endArrow=classic;html=1;fillColor=#e51400;strokeColor=#B20000;dashed=1;" parent="1" edge="1">
          <mxGeometry width="50" height="50" relative="1" as="geometry">
            <mxPoint x="762" y="688" as="sourcePoint"/>
            <mxPoint x="402" y="688" as="targetPoint"/>
          </mxGeometry>
        </mxCell>
        <mxCell id="iUQutEtc0r-RjC1v5hM1-65" value="&lt;font style=&quot;font-size: 11px&quot;&gt;2e. User Authontication code from OIDC Authorization code (AJAX)&lt;/font&gt;" style="text;html=1;strokeColor=none;fillColor=none;align=left;verticalAlign=middle;whiteSpace=wrap;rounded=0;" parent="1" vertex="1">
          <mxGeometry x="404" y="668" width="356" height="18" as="geometry"/>
        </mxCell>
        <mxCell id="iUQutEtc0r-RjC1v5hM1-69" value="" style="endArrow=classic;html=1;" parent="1" edge="1">
          <mxGeometry width="50" height="50" relative="1" as="geometry">
            <mxPoint x="400" y="788" as="sourcePoint"/>
            <mxPoint x="180" y="788" as="targetPoint"/>
          </mxGeometry>
        </mxCell>
        <mxCell id="iUQutEtc0r-RjC1v5hM1-70" value="&lt;font style=&quot;font-size: 11px&quot;&gt;7a. Send Authorization Code&lt;/font&gt;" style="text;html=1;strokeColor=none;fillColor=none;align=left;verticalAlign=middle;whiteSpace=wrap;rounded=0;" parent="1" vertex="1">
          <mxGeometry x="199" y="768" width="151" height="18" as="geometry"/>
        </mxCell>
        <mxCell id="iUQutEtc0r-RjC1v5hM1-71" value="" style="endArrow=classic;html=1;fillColor=#60a917;strokeColor=#2D7600;" parent="1" edge="1">
          <mxGeometry width="50" height="50" relative="1" as="geometry">
            <mxPoint x="180" y="818" as="sourcePoint"/>
            <mxPoint x="760" y="818" as="targetPoint"/>
          </mxGeometry>
        </mxCell>
        <mxCell id="iUQutEtc0r-RjC1v5hM1-72" value="" style="endArrow=classic;html=1;" parent="1" edge="1">
          <mxGeometry width="50" height="50" relative="1" as="geometry">
            <mxPoint x="761" y="848" as="sourcePoint"/>
            <mxPoint x="181" y="848" as="targetPoint"/>
          </mxGeometry>
        </mxCell>
        <mxCell id="iUQutEtc0r-RjC1v5hM1-74" value="" style="endArrow=classic;html=1;fillColor=#60a917;strokeColor=#2D7600;" parent="1" edge="1">
          <mxGeometry width="50" height="50" relative="1" as="geometry">
            <mxPoint x="180" y="880.5" as="sourcePoint"/>
            <mxPoint x="400" y="880.5" as="targetPoint"/>
          </mxGeometry>
        </mxCell>
        <mxCell id="iUQutEtc0r-RjC1v5hM1-75" value="&lt;font style=&quot;font-size: 11px&quot;&gt;7d. User authenticated&lt;/font&gt;" style="text;html=1;strokeColor=none;fillColor=none;align=left;verticalAlign=middle;whiteSpace=wrap;rounded=0;" parent="1" vertex="1">
          <mxGeometry x="199" y="859" width="143" height="18" as="geometry"/>
        </mxCell>
        <mxCell id="iUQutEtc0r-RjC1v5hM1-76" value="&lt;font style=&quot;font-size: 11px&quot;&gt;7b. Send Autiorization Code (ODB)&lt;/font&gt;" style="text;html=1;strokeColor=none;fillColor=none;align=left;verticalAlign=middle;whiteSpace=wrap;rounded=0;" parent="1" vertex="1">
          <mxGeometry x="349" y="798" width="191" height="18" as="geometry"/>
        </mxCell>
        <mxCell id="iUQutEtc0r-RjC1v5hM1-77" value="&lt;font style=&quot;font-size: 11px&quot;&gt;7c. Issue ID Token, Access Token, Refresh Token&lt;/font&gt;" style="text;html=1;strokeColor=none;fillColor=none;align=center;verticalAlign=middle;whiteSpace=wrap;rounded=0;" parent="1" vertex="1">
          <mxGeometry x="307" y="829" width="305" height="18" as="geometry"/>
        </mxCell>
        <mxCell id="iUQutEtc0r-RjC1v5hM1-83" value="&lt;font size=&quot;1&quot;&gt;&lt;b&gt;OIDC Authorization Code Grant&lt;/b&gt;&lt;/font&gt;" style="text;html=1;strokeColor=none;fillColor=none;align=center;verticalAlign=middle;whiteSpace=wrap;rounded=0;" parent="1" vertex="1">
          <mxGeometry x="100" y="768" width="60" height="70" as="geometry"/>
        </mxCell>
        <mxCell id="iUQutEtc0r-RjC1v5hM1-84" value="&lt;font size=&quot;1&quot;&gt;&lt;b&gt;Singpass Mobile 2FA Authentication&lt;/b&gt;&lt;/font&gt;" style="text;html=1;strokeColor=none;fillColor=none;align=center;verticalAlign=middle;whiteSpace=wrap;rounded=0;" parent="1" vertex="1">
          <mxGeometry x="320" y="560" width="60" height="70" as="geometry"/>
        </mxCell>
        <mxCell id="iUQutEtc0r-RjC1v5hM1-85" value="&lt;font size=&quot;1&quot;&gt;&lt;b&gt;User Scan QR Code&lt;/b&gt;&lt;/font&gt;" style="text;html=1;strokeColor=none;fillColor=none;align=center;verticalAlign=middle;whiteSpace=wrap;rounded=0;" parent="1" vertex="1">
          <mxGeometry x="319" y="385" width="60" height="70" as="geometry"/>
        </mxCell>
        <mxCell id="iUQutEtc0r-RjC1v5hM1-86" value="&lt;font size=&quot;1&quot;&gt;&lt;b&gt;OIDC Initialization&lt;/b&gt;&lt;/font&gt;" style="text;html=1;strokeColor=none;fillColor=none;align=center;verticalAlign=middle;whiteSpace=wrap;rounded=0;" parent="1" vertex="1">
          <mxGeometry x="100" y="201" width="60" height="70" as="geometry"/>
        </mxCell>
      </root>
    </mxGraphModel>
  </diagram>
  <diagram id="ytrDZYUX7TyogK447uAY" name="Page-2">
    <mxGraphModel dx="782" dy="697" grid="1" gridSize="10" guides="1" tooltips="1" connect="1" arrows="1" fold="1" page="1" pageScale="1" pageWidth="1169" pageHeight="827" math="0" shadow="0">
      <root>
        <mxCell id="EJBTwB-8o6bTylfl89Kl-0"/>
        <mxCell id="EJBTwB-8o6bTylfl89Kl-1" parent="EJBTwB-8o6bTylfl89Kl-0"/>
        <mxCell id="EJBTwB-8o6bTylfl89Kl-33" value="" style="edgeStyle=none;rounded=0;orthogonalLoop=1;jettySize=auto;html=1;" edge="1" parent="EJBTwB-8o6bTylfl89Kl-1" source="EJBTwB-8o6bTylfl89Kl-2" target="EJBTwB-8o6bTylfl89Kl-5">
          <mxGeometry relative="1" as="geometry"/>
        </mxCell>
        <mxCell id="EJBTwB-8o6bTylfl89Kl-2" value="" style="verticalLabelPosition=bottom;aspect=fixed;html=1;verticalAlign=top;strokeColor=none;align=center;outlineConnect=0;shape=mxgraph.citrix.web_server;" vertex="1" parent="EJBTwB-8o6bTylfl89Kl-1">
          <mxGeometry x="540" y="273.5" width="67" height="79" as="geometry"/>
        </mxCell>
        <mxCell id="EJBTwB-8o6bTylfl89Kl-46" value="" style="edgeStyle=none;rounded=0;orthogonalLoop=1;jettySize=auto;html=1;" edge="1" parent="EJBTwB-8o6bTylfl89Kl-1" source="EJBTwB-8o6bTylfl89Kl-5" target="EJBTwB-8o6bTylfl89Kl-34">
          <mxGeometry relative="1" as="geometry"/>
        </mxCell>
        <mxCell id="EJBTwB-8o6bTylfl89Kl-5" value="" style="verticalLabelPosition=bottom;aspect=fixed;html=1;verticalAlign=top;strokeColor=none;align=center;outlineConnect=0;shape=mxgraph.citrix.firewall;" vertex="1" parent="EJBTwB-8o6bTylfl89Kl-1">
          <mxGeometry x="663" y="275" width="61" height="75" as="geometry"/>
        </mxCell>
        <mxCell id="EJBTwB-8o6bTylfl89Kl-12" value="" style="verticalLabelPosition=bottom;aspect=fixed;html=1;verticalAlign=top;strokeColor=none;align=center;outlineConnect=0;shape=mxgraph.citrix.database_server;" vertex="1" parent="EJBTwB-8o6bTylfl89Kl-1">
          <mxGeometry x="859" y="50" width="72" height="81" as="geometry"/>
        </mxCell>
        <mxCell id="EJBTwB-8o6bTylfl89Kl-81" value="" style="edgeStyle=orthogonalEdgeStyle;rounded=0;orthogonalLoop=1;jettySize=auto;html=1;" edge="1" parent="EJBTwB-8o6bTylfl89Kl-1" source="EJBTwB-8o6bTylfl89Kl-14" target="EJBTwB-8o6bTylfl89Kl-80">
          <mxGeometry relative="1" as="geometry"/>
        </mxCell>
        <mxCell id="EJBTwB-8o6bTylfl89Kl-14" value="" style="verticalLabelPosition=bottom;aspect=fixed;html=1;verticalAlign=top;strokeColor=none;align=center;outlineConnect=0;shape=mxgraph.citrix.license_server;" vertex="1" parent="EJBTwB-8o6bTylfl89Kl-1">
          <mxGeometry x="863.5" y="271.5" width="63" height="83" as="geometry"/>
        </mxCell>
        <mxCell id="EJBTwB-8o6bTylfl89Kl-28" value="" style="verticalLabelPosition=bottom;aspect=fixed;html=1;verticalAlign=top;strokeColor=none;align=center;outlineConnect=0;shape=mxgraph.citrix.laptop_2;" vertex="1" parent="EJBTwB-8o6bTylfl89Kl-1">
          <mxGeometry x="65.5" y="269.5" width="89" height="67" as="geometry"/>
        </mxCell>
        <mxCell id="EJBTwB-8o6bTylfl89Kl-90" style="edgeStyle=orthogonalEdgeStyle;rounded=0;orthogonalLoop=1;jettySize=auto;html=1;exitX=1;exitY=0.5;exitDx=0;exitDy=0;exitPerimeter=0;" edge="1" parent="EJBTwB-8o6bTylfl89Kl-1" source="EJBTwB-8o6bTylfl89Kl-32" target="EJBTwB-8o6bTylfl89Kl-35">
          <mxGeometry relative="1" as="geometry"/>
        </mxCell>
        <mxCell id="EJBTwB-8o6bTylfl89Kl-32" value="" style="aspect=fixed;pointerEvents=1;shadow=0;dashed=0;html=1;strokeColor=none;labelPosition=center;verticalLabelPosition=bottom;verticalAlign=top;align=center;fillColor=#00188D;shape=mxgraph.azure.mobile" vertex="1" parent="EJBTwB-8o6bTylfl89Kl-1">
          <mxGeometry x="159.5" y="288" width="35" height="50" as="geometry"/>
        </mxCell>
        <mxCell id="EJBTwB-8o6bTylfl89Kl-47" value="" style="edgeStyle=none;rounded=0;orthogonalLoop=1;jettySize=auto;html=1;" edge="1" parent="EJBTwB-8o6bTylfl89Kl-1" source="EJBTwB-8o6bTylfl89Kl-34" target="EJBTwB-8o6bTylfl89Kl-14">
          <mxGeometry relative="1" as="geometry"/>
        </mxCell>
        <mxCell id="EJBTwB-8o6bTylfl89Kl-34" value="" style="fontColor=#0066CC;verticalAlign=top;verticalLabelPosition=bottom;labelPosition=center;align=center;html=1;outlineConnect=0;fillColor=#CCCCCC;strokeColor=#6881B3;gradientColor=none;gradientDirection=north;strokeWidth=2;shape=mxgraph.networks.load_balancer;direction=east;" vertex="1" parent="EJBTwB-8o6bTylfl89Kl-1">
          <mxGeometry x="760" y="303" width="60" height="20" as="geometry"/>
        </mxCell>
        <mxCell id="EJBTwB-8o6bTylfl89Kl-59" value="" style="edgeStyle=none;rounded=0;orthogonalLoop=1;jettySize=auto;html=1;" edge="1" parent="EJBTwB-8o6bTylfl89Kl-1" source="EJBTwB-8o6bTylfl89Kl-35" target="EJBTwB-8o6bTylfl89Kl-53">
          <mxGeometry relative="1" as="geometry"/>
        </mxCell>
        <mxCell id="EJBTwB-8o6bTylfl89Kl-35" value="" style="verticalLabelPosition=bottom;aspect=fixed;html=1;verticalAlign=top;strokeColor=none;align=center;outlineConnect=0;shape=mxgraph.citrix.cloud;" vertex="1" parent="EJBTwB-8o6bTylfl89Kl-1">
          <mxGeometry x="270" y="282" width="95" height="62" as="geometry"/>
        </mxCell>
        <mxCell id="EJBTwB-8o6bTylfl89Kl-40" value="" style="verticalLabelPosition=bottom;aspect=fixed;html=1;verticalAlign=top;strokeColor=none;align=center;outlineConnect=0;shape=mxgraph.citrix.license_server;" vertex="1" parent="EJBTwB-8o6bTylfl89Kl-1">
          <mxGeometry x="317" y="479.5" width="63" height="83" as="geometry"/>
        </mxCell>
        <mxCell id="EJBTwB-8o6bTylfl89Kl-41" value="SingPass OP (OIDC Provider)" style="text;html=1;strokeColor=none;fillColor=none;align=center;verticalAlign=middle;whiteSpace=wrap;rounded=0;" vertex="1" parent="EJBTwB-8o6bTylfl89Kl-1">
          <mxGeometry x="297" y="567.5" width="100" height="30" as="geometry"/>
        </mxCell>
        <mxCell id="EJBTwB-8o6bTylfl89Kl-42" value="User Agent" style="text;html=1;strokeColor=none;fillColor=none;align=center;verticalAlign=middle;whiteSpace=wrap;rounded=0;" vertex="1" parent="EJBTwB-8o6bTylfl89Kl-1">
          <mxGeometry x="105" y="340" width="72" height="20" as="geometry"/>
        </mxCell>
        <mxCell id="EJBTwB-8o6bTylfl89Kl-50" value="Login Portal Web Servers" style="text;html=1;strokeColor=none;fillColor=none;align=center;verticalAlign=middle;whiteSpace=wrap;rounded=0;" vertex="1" parent="EJBTwB-8o6bTylfl89Kl-1">
          <mxGeometry x="520" y="351.5" width="107" height="30" as="geometry"/>
        </mxCell>
        <mxCell id="EJBTwB-8o6bTylfl89Kl-52" value="Firewall" style="text;html=1;strokeColor=none;fillColor=none;align=center;verticalAlign=middle;whiteSpace=wrap;rounded=0;" vertex="1" parent="EJBTwB-8o6bTylfl89Kl-1">
          <mxGeometry x="402" y="352.5" width="81" height="25" as="geometry"/>
        </mxCell>
        <mxCell id="EJBTwB-8o6bTylfl89Kl-54" value="" style="edgeStyle=none;rounded=0;orthogonalLoop=1;jettySize=auto;html=1;" edge="1" parent="EJBTwB-8o6bTylfl89Kl-1" source="EJBTwB-8o6bTylfl89Kl-53" target="EJBTwB-8o6bTylfl89Kl-2">
          <mxGeometry relative="1" as="geometry"/>
        </mxCell>
        <mxCell id="EJBTwB-8o6bTylfl89Kl-53" value="" style="verticalLabelPosition=bottom;aspect=fixed;html=1;verticalAlign=top;strokeColor=none;align=center;outlineConnect=0;shape=mxgraph.citrix.firewall;" vertex="1" parent="EJBTwB-8o6bTylfl89Kl-1">
          <mxGeometry x="412" y="276" width="60" height="74" as="geometry"/>
        </mxCell>
        <mxCell id="EJBTwB-8o6bTylfl89Kl-55" value="Firewall" style="text;html=1;strokeColor=none;fillColor=none;align=center;verticalAlign=middle;whiteSpace=wrap;rounded=0;" vertex="1" parent="EJBTwB-8o6bTylfl89Kl-1">
          <mxGeometry x="653" y="351.5" width="81" height="25" as="geometry"/>
        </mxCell>
        <mxCell id="EJBTwB-8o6bTylfl89Kl-56" value="Login Portal App Servers" style="text;html=1;strokeColor=none;fillColor=none;align=center;verticalAlign=middle;whiteSpace=wrap;rounded=0;" vertex="1" parent="EJBTwB-8o6bTylfl89Kl-1">
          <mxGeometry x="840.5" y="359" width="107" height="30" as="geometry"/>
        </mxCell>
        <mxCell id="EJBTwB-8o6bTylfl89Kl-57" value="Login Portal DB Server" style="text;html=1;strokeColor=none;fillColor=none;align=center;verticalAlign=middle;whiteSpace=wrap;rounded=0;" vertex="1" parent="EJBTwB-8o6bTylfl89Kl-1">
          <mxGeometry x="900" y="131" width="107" height="30" as="geometry"/>
        </mxCell>
        <mxCell id="EJBTwB-8o6bTylfl89Kl-58" value="F5" style="text;html=1;strokeColor=none;fillColor=none;align=center;verticalAlign=middle;whiteSpace=wrap;rounded=0;" vertex="1" parent="EJBTwB-8o6bTylfl89Kl-1">
          <mxGeometry x="760" y="328" width="70" height="19" as="geometry"/>
        </mxCell>
        <mxCell id="EJBTwB-8o6bTylfl89Kl-60" value="" style="pointerEvents=1;shadow=0;dashed=0;html=1;strokeColor=none;fillColor=#505050;labelPosition=center;verticalLabelPosition=bottom;verticalAlign=top;outlineConnect=0;align=center;shape=mxgraph.office.users.user_external;" vertex="1" parent="EJBTwB-8o6bTylfl89Kl-1">
          <mxGeometry x="45.5" y="330" width="40" height="43" as="geometry"/>
        </mxCell>
        <mxCell id="EJBTwB-8o6bTylfl89Kl-61" value="Users" style="text;html=1;strokeColor=none;fillColor=none;align=center;verticalAlign=middle;whiteSpace=wrap;rounded=0;" vertex="1" parent="EJBTwB-8o6bTylfl89Kl-1">
          <mxGeometry x="32.5" y="376.5" width="53" height="17" as="geometry"/>
        </mxCell>
        <mxCell id="EJBTwB-8o6bTylfl89Kl-76" style="edgeStyle=orthogonalEdgeStyle;rounded=0;orthogonalLoop=1;jettySize=auto;html=1;fillColor=#0050ef;strokeColor=#000000;" edge="1" parent="EJBTwB-8o6bTylfl89Kl-1">
          <mxGeometry relative="1" as="geometry">
            <mxPoint x="142" y="370" as="sourcePoint"/>
            <mxPoint x="142" y="490" as="targetPoint"/>
          </mxGeometry>
        </mxCell>
        <mxCell id="EJBTwB-8o6bTylfl89Kl-82" value="" style="edgeStyle=orthogonalEdgeStyle;rounded=0;orthogonalLoop=1;jettySize=auto;html=1;" edge="1" parent="EJBTwB-8o6bTylfl89Kl-1" source="EJBTwB-8o6bTylfl89Kl-80" target="EJBTwB-8o6bTylfl89Kl-12">
          <mxGeometry relative="1" as="geometry"/>
        </mxCell>
        <mxCell id="EJBTwB-8o6bTylfl89Kl-80" value="" style="verticalLabelPosition=bottom;aspect=fixed;html=1;verticalAlign=top;strokeColor=none;align=center;outlineConnect=0;shape=mxgraph.citrix.firewall;" vertex="1" parent="EJBTwB-8o6bTylfl89Kl-1">
          <mxGeometry x="867" y="168" width="56" height="68" as="geometry"/>
        </mxCell>
        <mxCell id="EJBTwB-8o6bTylfl89Kl-91" style="edgeStyle=orthogonalEdgeStyle;rounded=0;orthogonalLoop=1;jettySize=auto;html=1;fillColor=#0050ef;strokeColor=#000000;" edge="1" parent="EJBTwB-8o6bTylfl89Kl-1" source="EJBTwB-8o6bTylfl89Kl-95">
          <mxGeometry relative="1" as="geometry">
            <mxPoint x="160" y="480" as="sourcePoint"/>
            <mxPoint x="160" y="370" as="targetPoint"/>
          </mxGeometry>
        </mxCell>
        <mxCell id="EJBTwB-8o6bTylfl89Kl-96" value="" style="edgeStyle=orthogonalEdgeStyle;rounded=0;orthogonalLoop=1;jettySize=auto;html=1;fillColor=#0050ef;strokeColor=#000000;" edge="1" parent="EJBTwB-8o6bTylfl89Kl-1" source="EJBTwB-8o6bTylfl89Kl-40">
          <mxGeometry relative="1" as="geometry">
            <mxPoint x="210" y="521" as="targetPoint"/>
          </mxGeometry>
        </mxCell>
        <mxCell id="EJBTwB-8o6bTylfl89Kl-95" value="" style="verticalLabelPosition=bottom;aspect=fixed;html=1;verticalAlign=top;strokeColor=none;align=center;outlineConnect=0;shape=mxgraph.citrix.cloud;" vertex="1" parent="EJBTwB-8o6bTylfl89Kl-1">
          <mxGeometry x="112" y="489.5" width="95" height="62" as="geometry"/>
        </mxCell>
        <mxCell id="EJBTwB-8o6bTylfl89Kl-99" value="" style="edgeStyle=orthogonalEdgeStyle;rounded=0;orthogonalLoop=1;jettySize=auto;html=1;fillColor=#0050ef;strokeColor=#000000;" edge="1" parent="EJBTwB-8o6bTylfl89Kl-1" target="EJBTwB-8o6bTylfl89Kl-40">
          <mxGeometry relative="1" as="geometry">
            <mxPoint x="210" y="537" as="sourcePoint"/>
            <mxPoint x="403" y="521" as="targetPoint"/>
            <Array as="points">
              <mxPoint x="376" y="537"/>
              <mxPoint x="376" y="537"/>
            </Array>
          </mxGeometry>
        </mxCell>
        <mxCell id="9Z1VxtJFMANrKpsK8Q8I-0" value="" style="edgeStyle=orthogonalEdgeStyle;rounded=0;orthogonalLoop=1;jettySize=auto;html=1;strokeColor=#000000;" edge="1" parent="EJBTwB-8o6bTylfl89Kl-1" source="9Z1VxtJFMANrKpsK8Q8I-1" target="9Z1VxtJFMANrKpsK8Q8I-3">
          <mxGeometry relative="1" as="geometry"/>
        </mxCell>
        <mxCell id="9Z1VxtJFMANrKpsK8Q8I-1" value="" style="verticalLabelPosition=bottom;aspect=fixed;html=1;verticalAlign=top;strokeColor=none;align=center;outlineConnect=0;shape=mxgraph.citrix.firewall;" vertex="1" parent="EJBTwB-8o6bTylfl89Kl-1">
          <mxGeometry x="607" y="483.5" width="60" height="74" as="geometry"/>
        </mxCell>
        <mxCell id="9Z1VxtJFMANrKpsK8Q8I-2" value="" style="edgeStyle=orthogonalEdgeStyle;rounded=0;orthogonalLoop=1;jettySize=auto;html=1;strokeColor=#000000;" edge="1" parent="EJBTwB-8o6bTylfl89Kl-1" source="9Z1VxtJFMANrKpsK8Q8I-3">
          <mxGeometry relative="1" as="geometry">
            <mxPoint x="380" y="521" as="targetPoint"/>
          </mxGeometry>
        </mxCell>
        <mxCell id="9Z1VxtJFMANrKpsK8Q8I-3" value="" style="verticalLabelPosition=bottom;aspect=fixed;html=1;verticalAlign=top;strokeColor=none;align=center;outlineConnect=0;shape=mxgraph.citrix.cloud;" vertex="1" parent="EJBTwB-8o6bTylfl89Kl-1">
          <mxGeometry x="442" y="490" width="95" height="62" as="geometry"/>
        </mxCell>
        <mxCell id="9Z1VxtJFMANrKpsK8Q8I-4" style="edgeStyle=orthogonalEdgeStyle;rounded=0;orthogonalLoop=1;jettySize=auto;html=1;exitX=0.5;exitY=1;exitDx=0;exitDy=0;strokeColor=#000000;" edge="1" parent="EJBTwB-8o6bTylfl89Kl-1" target="9Z1VxtJFMANrKpsK8Q8I-1">
          <mxGeometry relative="1" as="geometry">
            <mxPoint x="895" y="385" as="sourcePoint"/>
            <Array as="points">
              <mxPoint x="895" y="521"/>
            </Array>
          </mxGeometry>
        </mxCell>
      </root>
    </mxGraphModel>
  </diagram>
  <diagram name="Page-3" id="xtECsNAB8kquWhk1qO8X">
    <mxGraphModel dx="782" dy="697" grid="1" gridSize="10" guides="1" tooltips="1" connect="1" arrows="1" fold="1" page="1" pageScale="1" pageWidth="1169" pageHeight="827" math="0" shadow="0">
      <root>
        <mxCell id="oBkHnf04JaPJBDmRXWYk-0"/>
        <mxCell id="oBkHnf04JaPJBDmRXWYk-1" parent="oBkHnf04JaPJBDmRXWYk-0"/>
        <mxCell id="oBkHnf04JaPJBDmRXWYk-2" value="" style="edgeStyle=none;rounded=0;orthogonalLoop=1;jettySize=auto;html=1;" edge="1" parent="oBkHnf04JaPJBDmRXWYk-1" source="xu5ACYBxh4Bkn6cML6_v-1" target="oBkHnf04JaPJBDmRXWYk-5">
          <mxGeometry relative="1" as="geometry"/>
        </mxCell>
        <mxCell id="oBkHnf04JaPJBDmRXWYk-3" value="" style="verticalLabelPosition=bottom;aspect=fixed;html=1;verticalAlign=top;strokeColor=none;align=center;outlineConnect=0;shape=mxgraph.citrix.web_server;" vertex="1" parent="oBkHnf04JaPJBDmRXWYk-1">
          <mxGeometry x="540" y="273.5" width="67" height="79" as="geometry"/>
        </mxCell>
        <mxCell id="oBkHnf04JaPJBDmRXWYk-4" value="" style="edgeStyle=none;rounded=0;orthogonalLoop=1;jettySize=auto;html=1;" edge="1" parent="oBkHnf04JaPJBDmRXWYk-1" source="oBkHnf04JaPJBDmRXWYk-5" target="oBkHnf04JaPJBDmRXWYk-13">
          <mxGeometry relative="1" as="geometry"/>
        </mxCell>
        <mxCell id="oBkHnf04JaPJBDmRXWYk-5" value="" style="verticalLabelPosition=bottom;aspect=fixed;html=1;verticalAlign=top;strokeColor=none;align=center;outlineConnect=0;shape=mxgraph.citrix.firewall;" vertex="1" parent="oBkHnf04JaPJBDmRXWYk-1">
          <mxGeometry x="663" y="275" width="61" height="75" as="geometry"/>
        </mxCell>
        <mxCell id="oBkHnf04JaPJBDmRXWYk-6" value="" style="verticalLabelPosition=bottom;aspect=fixed;html=1;verticalAlign=top;strokeColor=none;align=center;outlineConnect=0;shape=mxgraph.citrix.database_server;" vertex="1" parent="oBkHnf04JaPJBDmRXWYk-1">
          <mxGeometry x="859" y="50" width="72" height="81" as="geometry"/>
        </mxCell>
        <mxCell id="oBkHnf04JaPJBDmRXWYk-7" value="" style="edgeStyle=orthogonalEdgeStyle;rounded=0;orthogonalLoop=1;jettySize=auto;html=1;" edge="1" parent="oBkHnf04JaPJBDmRXWYk-1" source="oBkHnf04JaPJBDmRXWYk-8" target="oBkHnf04JaPJBDmRXWYk-36">
          <mxGeometry relative="1" as="geometry"/>
        </mxCell>
        <mxCell id="oBkHnf04JaPJBDmRXWYk-8" value="" style="verticalLabelPosition=bottom;aspect=fixed;html=1;verticalAlign=top;strokeColor=none;align=center;outlineConnect=0;shape=mxgraph.citrix.license_server;" vertex="1" parent="oBkHnf04JaPJBDmRXWYk-1">
          <mxGeometry x="863.5" y="271.5" width="63" height="83" as="geometry"/>
        </mxCell>
        <mxCell id="oBkHnf04JaPJBDmRXWYk-9" value="" style="verticalLabelPosition=bottom;aspect=fixed;html=1;verticalAlign=top;strokeColor=none;align=center;outlineConnect=0;shape=mxgraph.citrix.laptop_2;" vertex="1" parent="oBkHnf04JaPJBDmRXWYk-1">
          <mxGeometry x="65.5" y="269.5" width="89" height="67" as="geometry"/>
        </mxCell>
        <mxCell id="oBkHnf04JaPJBDmRXWYk-10" style="edgeStyle=orthogonalEdgeStyle;rounded=0;orthogonalLoop=1;jettySize=auto;html=1;exitX=1;exitY=0.5;exitDx=0;exitDy=0;exitPerimeter=0;" edge="1" parent="oBkHnf04JaPJBDmRXWYk-1" source="oBkHnf04JaPJBDmRXWYk-11" target="oBkHnf04JaPJBDmRXWYk-15">
          <mxGeometry relative="1" as="geometry"/>
        </mxCell>
        <mxCell id="oBkHnf04JaPJBDmRXWYk-11" value="" style="aspect=fixed;pointerEvents=1;shadow=0;dashed=0;html=1;strokeColor=none;labelPosition=center;verticalLabelPosition=bottom;verticalAlign=top;align=center;fillColor=#00188D;shape=mxgraph.azure.mobile" vertex="1" parent="oBkHnf04JaPJBDmRXWYk-1">
          <mxGeometry x="159.5" y="288" width="35" height="50" as="geometry"/>
        </mxCell>
        <mxCell id="oBkHnf04JaPJBDmRXWYk-12" value="" style="edgeStyle=none;rounded=0;orthogonalLoop=1;jettySize=auto;html=1;" edge="1" parent="oBkHnf04JaPJBDmRXWYk-1" source="oBkHnf04JaPJBDmRXWYk-13" target="oBkHnf04JaPJBDmRXWYk-8">
          <mxGeometry relative="1" as="geometry"/>
        </mxCell>
        <mxCell id="oBkHnf04JaPJBDmRXWYk-13" value="" style="fontColor=#0066CC;verticalAlign=top;verticalLabelPosition=bottom;labelPosition=center;align=center;html=1;outlineConnect=0;fillColor=#CCCCCC;strokeColor=#6881B3;gradientColor=none;gradientDirection=north;strokeWidth=2;shape=mxgraph.networks.load_balancer;direction=east;" vertex="1" parent="oBkHnf04JaPJBDmRXWYk-1">
          <mxGeometry x="760" y="303" width="60" height="20" as="geometry"/>
        </mxCell>
        <mxCell id="oBkHnf04JaPJBDmRXWYk-14" value="" style="edgeStyle=none;rounded=0;orthogonalLoop=1;jettySize=auto;html=1;" edge="1" parent="oBkHnf04JaPJBDmRXWYk-1" source="oBkHnf04JaPJBDmRXWYk-15" target="oBkHnf04JaPJBDmRXWYk-23">
          <mxGeometry relative="1" as="geometry"/>
        </mxCell>
        <mxCell id="oBkHnf04JaPJBDmRXWYk-15" value="" style="verticalLabelPosition=bottom;aspect=fixed;html=1;verticalAlign=top;strokeColor=none;align=center;outlineConnect=0;shape=mxgraph.citrix.cloud;" vertex="1" parent="oBkHnf04JaPJBDmRXWYk-1">
          <mxGeometry x="270" y="282" width="95" height="62" as="geometry"/>
        </mxCell>
        <mxCell id="oBkHnf04JaPJBDmRXWYk-17" value="" style="verticalLabelPosition=bottom;aspect=fixed;html=1;verticalAlign=top;strokeColor=none;align=center;outlineConnect=0;shape=mxgraph.citrix.license_server;" vertex="1" parent="oBkHnf04JaPJBDmRXWYk-1">
          <mxGeometry x="317" y="479.5" width="63" height="83" as="geometry"/>
        </mxCell>
        <mxCell id="oBkHnf04JaPJBDmRXWYk-18" value="SingPass OP (OIDC Provider)" style="text;html=1;strokeColor=none;fillColor=none;align=center;verticalAlign=middle;whiteSpace=wrap;rounded=0;" vertex="1" parent="oBkHnf04JaPJBDmRXWYk-1">
          <mxGeometry x="297" y="567.5" width="100" height="30" as="geometry"/>
        </mxCell>
        <mxCell id="oBkHnf04JaPJBDmRXWYk-19" value="User Agent" style="text;html=1;strokeColor=none;fillColor=none;align=center;verticalAlign=middle;whiteSpace=wrap;rounded=0;" vertex="1" parent="oBkHnf04JaPJBDmRXWYk-1">
          <mxGeometry x="105" y="340" width="72" height="20" as="geometry"/>
        </mxCell>
        <mxCell id="oBkHnf04JaPJBDmRXWYk-20" value="Login Portal Web Servers" style="text;html=1;strokeColor=none;fillColor=none;align=center;verticalAlign=middle;whiteSpace=wrap;rounded=0;" vertex="1" parent="oBkHnf04JaPJBDmRXWYk-1">
          <mxGeometry x="520" y="351.5" width="107" height="30" as="geometry"/>
        </mxCell>
        <mxCell id="oBkHnf04JaPJBDmRXWYk-21" value="Firewall" style="text;html=1;strokeColor=none;fillColor=none;align=center;verticalAlign=middle;whiteSpace=wrap;rounded=0;" vertex="1" parent="oBkHnf04JaPJBDmRXWYk-1">
          <mxGeometry x="402" y="352.5" width="81" height="25" as="geometry"/>
        </mxCell>
        <mxCell id="oBkHnf04JaPJBDmRXWYk-22" value="" style="edgeStyle=none;rounded=0;orthogonalLoop=1;jettySize=auto;html=1;" edge="1" parent="oBkHnf04JaPJBDmRXWYk-1" source="oBkHnf04JaPJBDmRXWYk-23" target="oBkHnf04JaPJBDmRXWYk-3">
          <mxGeometry relative="1" as="geometry"/>
        </mxCell>
        <mxCell id="oBkHnf04JaPJBDmRXWYk-23" value="" style="verticalLabelPosition=bottom;aspect=fixed;html=1;verticalAlign=top;strokeColor=none;align=center;outlineConnect=0;shape=mxgraph.citrix.firewall;" vertex="1" parent="oBkHnf04JaPJBDmRXWYk-1">
          <mxGeometry x="412" y="276" width="60" height="74" as="geometry"/>
        </mxCell>
        <mxCell id="oBkHnf04JaPJBDmRXWYk-24" value="Firewall" style="text;html=1;strokeColor=none;fillColor=none;align=center;verticalAlign=middle;whiteSpace=wrap;rounded=0;" vertex="1" parent="oBkHnf04JaPJBDmRXWYk-1">
          <mxGeometry x="653" y="351.5" width="81" height="25" as="geometry"/>
        </mxCell>
        <mxCell id="oBkHnf04JaPJBDmRXWYk-26" value="Login Portal DB Server" style="text;html=1;strokeColor=none;fillColor=none;align=center;verticalAlign=middle;whiteSpace=wrap;rounded=0;" vertex="1" parent="oBkHnf04JaPJBDmRXWYk-1">
          <mxGeometry x="900" y="131" width="107" height="30" as="geometry"/>
        </mxCell>
        <mxCell id="oBkHnf04JaPJBDmRXWYk-27" value="F5" style="text;html=1;strokeColor=none;fillColor=none;align=center;verticalAlign=middle;whiteSpace=wrap;rounded=0;" vertex="1" parent="oBkHnf04JaPJBDmRXWYk-1">
          <mxGeometry x="760" y="328" width="70" height="19" as="geometry"/>
        </mxCell>
        <mxCell id="oBkHnf04JaPJBDmRXWYk-28" value="" style="pointerEvents=1;shadow=0;dashed=0;html=1;strokeColor=none;fillColor=#505050;labelPosition=center;verticalLabelPosition=bottom;verticalAlign=top;outlineConnect=0;align=center;shape=mxgraph.office.users.user_external;" vertex="1" parent="oBkHnf04JaPJBDmRXWYk-1">
          <mxGeometry x="45.5" y="330" width="40" height="43" as="geometry"/>
        </mxCell>
        <mxCell id="oBkHnf04JaPJBDmRXWYk-29" value="Users" style="text;html=1;strokeColor=none;fillColor=none;align=center;verticalAlign=middle;whiteSpace=wrap;rounded=0;" vertex="1" parent="oBkHnf04JaPJBDmRXWYk-1">
          <mxGeometry x="32.5" y="376.5" width="53" height="17" as="geometry"/>
        </mxCell>
        <mxCell id="oBkHnf04JaPJBDmRXWYk-34" style="edgeStyle=orthogonalEdgeStyle;rounded=0;orthogonalLoop=1;jettySize=auto;html=1;fillColor=#0050ef;strokeColor=#000000;" edge="1" parent="oBkHnf04JaPJBDmRXWYk-1">
          <mxGeometry relative="1" as="geometry">
            <mxPoint x="142" y="370" as="sourcePoint"/>
            <mxPoint x="142" y="490" as="targetPoint"/>
          </mxGeometry>
        </mxCell>
        <mxCell id="oBkHnf04JaPJBDmRXWYk-35" value="" style="edgeStyle=orthogonalEdgeStyle;rounded=0;orthogonalLoop=1;jettySize=auto;html=1;" edge="1" parent="oBkHnf04JaPJBDmRXWYk-1" source="oBkHnf04JaPJBDmRXWYk-36" target="oBkHnf04JaPJBDmRXWYk-6">
          <mxGeometry relative="1" as="geometry"/>
        </mxCell>
        <mxCell id="oBkHnf04JaPJBDmRXWYk-36" value="" style="verticalLabelPosition=bottom;aspect=fixed;html=1;verticalAlign=top;strokeColor=none;align=center;outlineConnect=0;shape=mxgraph.citrix.firewall;" vertex="1" parent="oBkHnf04JaPJBDmRXWYk-1">
          <mxGeometry x="867" y="168" width="56" height="68" as="geometry"/>
        </mxCell>
        <mxCell id="oBkHnf04JaPJBDmRXWYk-40" style="edgeStyle=orthogonalEdgeStyle;rounded=0;orthogonalLoop=1;jettySize=auto;html=1;fillColor=#0050ef;strokeColor=#000000;" edge="1" parent="oBkHnf04JaPJBDmRXWYk-1" source="oBkHnf04JaPJBDmRXWYk-42">
          <mxGeometry relative="1" as="geometry">
            <mxPoint x="160" y="480" as="sourcePoint"/>
            <mxPoint x="160" y="370" as="targetPoint"/>
          </mxGeometry>
        </mxCell>
        <mxCell id="oBkHnf04JaPJBDmRXWYk-41" value="" style="edgeStyle=orthogonalEdgeStyle;rounded=0;orthogonalLoop=1;jettySize=auto;html=1;fillColor=#0050ef;strokeColor=#000000;" edge="1" parent="oBkHnf04JaPJBDmRXWYk-1" source="oBkHnf04JaPJBDmRXWYk-17">
          <mxGeometry relative="1" as="geometry">
            <mxPoint x="210" y="521" as="targetPoint"/>
          </mxGeometry>
        </mxCell>
        <mxCell id="oBkHnf04JaPJBDmRXWYk-42" value="" style="verticalLabelPosition=bottom;aspect=fixed;html=1;verticalAlign=top;strokeColor=none;align=center;outlineConnect=0;shape=mxgraph.citrix.cloud;" vertex="1" parent="oBkHnf04JaPJBDmRXWYk-1">
          <mxGeometry x="112" y="489.5" width="95" height="62" as="geometry"/>
        </mxCell>
        <mxCell id="oBkHnf04JaPJBDmRXWYk-43" value="" style="edgeStyle=orthogonalEdgeStyle;rounded=0;orthogonalLoop=1;jettySize=auto;html=1;fillColor=#0050ef;strokeColor=#000000;" edge="1" parent="oBkHnf04JaPJBDmRXWYk-1" target="oBkHnf04JaPJBDmRXWYk-17">
          <mxGeometry relative="1" as="geometry">
            <mxPoint x="210" y="537" as="sourcePoint"/>
            <mxPoint x="403" y="521" as="targetPoint"/>
            <Array as="points">
              <mxPoint x="376" y="537"/>
              <mxPoint x="376" y="537"/>
            </Array>
          </mxGeometry>
        </mxCell>
        <mxCell id="xu5ACYBxh4Bkn6cML6_v-0" value="&lt;font style=&quot;font-size: 10px&quot;&gt;TCP 1433&lt;/font&gt;" style="text;html=1;strokeColor=none;fillColor=#FFFFFF;align=center;verticalAlign=middle;whiteSpace=wrap;rounded=0;" vertex="1" parent="oBkHnf04JaPJBDmRXWYk-1">
          <mxGeometry x="869" y="250" width="62" height="20" as="geometry"/>
        </mxCell>
        <mxCell id="xu5ACYBxh4Bkn6cML6_v-1" value="&lt;font style=&quot;font-size: 10px&quot;&gt;HTTPS&lt;/font&gt;" style="text;html=1;strokeColor=none;fillColor=#FFFFFF;align=center;verticalAlign=middle;whiteSpace=wrap;rounded=0;" vertex="1" parent="oBkHnf04JaPJBDmRXWYk-1">
          <mxGeometry x="607" y="303" width="40" height="20" as="geometry"/>
        </mxCell>
        <mxCell id="xu5ACYBxh4Bkn6cML6_v-2" value="" style="edgeStyle=none;rounded=0;orthogonalLoop=1;jettySize=auto;html=1;" edge="1" parent="oBkHnf04JaPJBDmRXWYk-1" source="oBkHnf04JaPJBDmRXWYk-3" target="xu5ACYBxh4Bkn6cML6_v-1">
          <mxGeometry relative="1" as="geometry">
            <mxPoint x="607" y="312.86041666666665" as="sourcePoint"/>
            <mxPoint x="663" y="312.6270833333333" as="targetPoint"/>
          </mxGeometry>
        </mxCell>
        <mxCell id="OxAnmBTqU8UFBJvVehK6-3" value="" style="edgeStyle=orthogonalEdgeStyle;rounded=0;orthogonalLoop=1;jettySize=auto;html=1;strokeColor=#000000;" edge="1" parent="oBkHnf04JaPJBDmRXWYk-1" source="OxAnmBTqU8UFBJvVehK6-0" target="OxAnmBTqU8UFBJvVehK6-1">
          <mxGeometry relative="1" as="geometry"/>
        </mxCell>
        <mxCell id="OxAnmBTqU8UFBJvVehK6-0" value="" style="verticalLabelPosition=bottom;aspect=fixed;html=1;verticalAlign=top;strokeColor=none;align=center;outlineConnect=0;shape=mxgraph.citrix.firewall;" vertex="1" parent="oBkHnf04JaPJBDmRXWYk-1">
          <mxGeometry x="607" y="483.5" width="60" height="74" as="geometry"/>
        </mxCell>
        <mxCell id="OxAnmBTqU8UFBJvVehK6-2" value="" style="edgeStyle=orthogonalEdgeStyle;rounded=0;orthogonalLoop=1;jettySize=auto;html=1;strokeColor=#000000;" edge="1" parent="oBkHnf04JaPJBDmRXWYk-1" source="OxAnmBTqU8UFBJvVehK6-1" target="oBkHnf04JaPJBDmRXWYk-17">
          <mxGeometry relative="1" as="geometry"/>
        </mxCell>
        <mxCell id="OxAnmBTqU8UFBJvVehK6-1" value="" style="verticalLabelPosition=bottom;aspect=fixed;html=1;verticalAlign=top;strokeColor=none;align=center;outlineConnect=0;shape=mxgraph.citrix.cloud;" vertex="1" parent="oBkHnf04JaPJBDmRXWYk-1">
          <mxGeometry x="442" y="490" width="95" height="62" as="geometry"/>
        </mxCell>
        <mxCell id="OxAnmBTqU8UFBJvVehK6-22" style="edgeStyle=orthogonalEdgeStyle;rounded=0;orthogonalLoop=1;jettySize=auto;html=1;exitX=0.5;exitY=1;exitDx=0;exitDy=0;strokeColor=#000000;" edge="1" parent="oBkHnf04JaPJBDmRXWYk-1" source="OxAnmBTqU8UFBJvVehK6-21" target="OxAnmBTqU8UFBJvVehK6-0">
          <mxGeometry relative="1" as="geometry">
            <Array as="points">
              <mxPoint x="895" y="521"/>
            </Array>
          </mxGeometry>
        </mxCell>
        <mxCell id="OxAnmBTqU8UFBJvVehK6-21" value="Login Portal App Servers" style="text;html=1;strokeColor=none;fillColor=none;align=center;verticalAlign=middle;whiteSpace=wrap;rounded=0;" vertex="1" parent="oBkHnf04JaPJBDmRXWYk-1">
          <mxGeometry x="841.5" y="354.5" width="107" height="30" as="geometry"/>
        </mxCell>
        <mxCell id="oBkHnf04JaPJBDmRXWYk-45" value="&lt;font style=&quot;font-size: 10px&quot;&gt;HTTPS&lt;/font&gt;" style="text;html=1;strokeColor=none;fillColor=#FFFFFF;align=center;verticalAlign=middle;whiteSpace=wrap;rounded=0;" vertex="1" parent="oBkHnf04JaPJBDmRXWYk-1">
          <mxGeometry x="760" y="507" width="40" height="20" as="geometry"/>
        </mxCell>
        <mxCell id="OxAnmBTqU8UFBJvVehK6-24" value="&lt;font style=&quot;font-size: 10px&quot;&gt;1 Way SSL&lt;/font&gt;" style="text;html=1;strokeColor=none;fillColor=#FFFFFF;align=center;verticalAlign=middle;whiteSpace=wrap;rounded=0;" vertex="1" parent="oBkHnf04JaPJBDmRXWYk-1">
          <mxGeometry x="554" y="509" width="40" height="30" as="geometry"/>
        </mxCell>
      </root>
    </mxGraphModel>
  </diagram>
</mxfile>
